<svg width="189" height="62" viewBox="0 0 189 62" fill="none" xmlns="http://www.w3.org/2000/svg">
<path d="M39.8489 45.7412C32.5297 45.7412 26.837 49.1985 26.837 53.6437C26.837 58.0888 32.5297 61.5461 39.8489 61.5461C47.1681 61.5461 52.8609 58.0888 52.8609 53.6437C52.8609 49.1985 47.1681 45.7412 39.8489 45.7412ZM117.107 0.795959H110.601V10.4271H134.999L117.107 0.795959ZM0.81317 55.1254H17.0781C17.0781 55.1254 17.8913 40.3083 41.4754 40.3083C58.9602 40.3083 61.8065 55.1254 61.8065 55.1254H102.469V0.795959H0L0.81317 55.1254ZM154.516 45.7412C147.197 45.7412 141.505 49.1985 141.505 53.6437C141.505 58.0888 147.197 61.5461 154.516 61.5461C161.836 61.5461 167.528 58.0888 167.528 53.6437C167.528 49.1985 161.429 45.7412 154.516 45.7412ZM139.065 13.1436H110.601V55.1254H134.999C134.999 55.1254 131.746 42.7778 155.33 42.7778C173.221 42.7778 172.814 55.1254 172.814 55.1254H187.86L188.673 36.604L139.065 13.1436ZM134.999 45.2473H118.734V40.3083H134.999V45.2473ZM133.372 36.357L117.107 30.4302V16.6009H133.372L175.661 36.357H133.372Z" fill="white" fill-opacity="0.4"/>
</svg>
