<svg width="29" height="15" viewBox="0 0 29 15" fill="none" xmlns="http://www.w3.org/2000/svg">
<path d="M27.8947 13.5466C27.8607 13.478 27.8291 13.4211 27.7997 13.3755C27.3131 12.554 26.3833 11.5456 25.0109 10.3502L24.9819 10.3228L24.9674 10.3094L24.9527 10.2956H24.938C24.3151 9.73891 23.9206 9.36461 23.7554 9.17298C23.4532 8.80793 23.3855 8.43842 23.5507 8.06402C23.6674 7.78115 24.1057 7.18377 24.8648 6.27105C25.264 5.78734 25.5802 5.39966 25.8137 5.10759C27.4978 3.00858 28.228 1.66729 28.004 1.08319L27.917 0.94669C27.8585 0.864514 27.7077 0.789337 27.4646 0.720777C27.221 0.65236 26.9096 0.641046 26.5299 0.686641L22.3249 0.713873C22.2568 0.691243 22.1595 0.693352 22.0328 0.720777C21.9062 0.748201 21.8429 0.761961 21.8429 0.761961L21.7697 0.796241L21.7116 0.837425C21.6629 0.864657 21.6094 0.912554 21.5509 0.981019C21.4928 1.04924 21.4441 1.12931 21.4053 1.22055C20.9475 2.32475 20.4269 3.35139 19.8428 4.3004C19.4826 4.86628 19.1518 5.3567 18.8497 5.77195C18.548 6.18705 18.2949 6.49289 18.0907 6.68893C17.8861 6.88517 17.7015 7.04238 17.5357 7.16114C17.3702 7.27994 17.2438 7.33014 17.1563 7.31178C17.0686 7.29341 16.986 7.2752 16.9078 7.25698C16.7716 7.1748 16.6621 7.06304 16.5795 6.92161C16.4965 6.78017 16.4407 6.60215 16.4115 6.3877C16.3824 6.1731 16.3653 5.98851 16.3603 5.83332C16.3558 5.67831 16.3579 5.45906 16.3678 5.17619C16.3779 4.89318 16.3824 4.70169 16.3824 4.60129C16.3824 4.25446 16.3896 3.87805 16.4041 3.47196C16.4188 3.06588 16.4308 2.74412 16.4407 2.50709C16.4507 2.26981 16.4553 2.01877 16.4553 1.75412C16.4553 1.48947 16.4381 1.28192 16.4041 1.13128C16.3706 0.980826 16.3191 0.834788 16.2512 0.693209C16.1829 0.551773 16.083 0.442364 15.9519 0.364694C15.8205 0.287121 15.6572 0.22556 15.4628 0.179821C14.9468 0.0703642 14.2898 0.011153 13.4915 0.00194768C11.681 -0.0162712 10.5177 0.0933293 10.0018 0.330606C9.79742 0.430857 9.61244 0.567834 9.44705 0.741105C9.27179 0.941943 9.24735 1.05154 9.37387 1.06957C9.958 1.1516 10.3715 1.34784 10.6149 1.65809L10.7026 1.82249C10.7708 1.9411 10.8389 2.1511 10.9071 2.45219C10.9752 2.75328 11.0191 3.08635 11.0384 3.45121C11.087 4.11749 11.087 4.68783 11.0384 5.16229C10.9897 5.63694 10.9437 6.00644 10.8998 6.2711C10.8558 6.53575 10.7902 6.75021 10.7026 6.91441C10.6149 7.07867 10.5565 7.17907 10.5273 7.2155C10.4981 7.25194 10.4738 7.27491 10.4544 7.28392C10.3279 7.32937 10.1963 7.35253 10.0601 7.35253C9.92373 7.35253 9.75834 7.28857 9.5637 7.16075C9.36911 7.03293 9.16716 6.85736 8.95784 6.63375C8.74852 6.41009 8.51246 6.09754 8.24954 5.69605C7.98683 5.29457 7.71425 4.82006 7.43196 4.27254L7.1984 3.87546C7.05239 3.62002 6.85294 3.24806 6.59985 2.75994C6.3466 2.27163 6.12276 1.79928 5.92817 1.343C5.85038 1.15136 5.73353 1.00547 5.5778 0.905075L5.50472 0.86389C5.45614 0.827453 5.37815 0.788761 5.27117 0.747529C5.16403 0.706345 5.05223 0.676811 4.93532 0.65864L0.934646 0.685873C0.525828 0.685873 0.248441 0.7727 0.102384 0.946115L0.0439298 1.02815C0.0147285 1.07384 0 1.14681 0 1.24725C0 1.34765 0.0292013 1.47087 0.087655 1.61676C0.671681 2.90359 1.3068 4.14462 1.993 5.34007C2.67921 6.53551 3.27551 7.49847 3.78154 8.22809C4.28768 8.95823 4.80359 9.64734 5.32926 10.2951C5.85494 10.943 6.2029 11.3583 6.37314 11.5407C6.5436 11.7235 6.67748 11.8601 6.7748 11.9513L7.13989 12.2798C7.37351 12.4989 7.71656 12.7612 8.1692 13.0669C8.62195 13.3727 9.12318 13.6738 9.67314 13.9706C10.2232 14.267 10.8631 14.5088 11.5933 14.6958C12.3233 14.883 13.0338 14.9582 13.725 14.9219H15.4042C15.7447 14.8944 16.0027 14.794 16.1781 14.6207L16.2362 14.5521C16.2752 14.4976 16.3118 14.413 16.3456 14.2991C16.3797 14.1851 16.3967 14.0594 16.3967 13.9227C16.3867 13.5304 16.4186 13.1768 16.4914 12.862C16.5642 12.5473 16.6471 12.31 16.7399 12.1502C16.8326 11.9906 16.9373 11.8558 17.0537 11.7466C17.1704 11.6372 17.2536 11.5709 17.3024 11.548C17.3508 11.5251 17.3895 11.5095 17.4187 11.5001C17.6524 11.4272 17.9273 11.4978 18.244 11.7125C18.5604 11.9269 18.8571 12.1917 19.1347 12.5064C19.4122 12.8214 19.7455 13.1748 20.1348 13.5672C20.5243 13.9596 20.8649 14.2514 21.1568 14.4433L21.4487 14.6076C21.6437 14.7172 21.8968 14.8176 22.2083 14.9088C22.5193 15 22.7918 15.0228 23.0258 14.9772L26.7635 14.9226C27.1332 14.9226 27.4208 14.8652 27.6249 14.7513C27.8293 14.6372 27.9508 14.5116 27.99 14.3749C28.029 14.2381 28.0311 14.0828 27.9974 13.9092C27.9628 13.7361 27.9287 13.6151 27.8947 13.5466Z" fill="#66C05D"/>
</svg>
